<svg xmlns="http://www.w3.org/2000/svg" xmlns:xlink="http://www.w3.org/1999/xlink" width="1080" zoomAndPan="magnify" viewBox="0 0 810 809.999993" height="1080" preserveAspectRatio="xMidYMid meet" version="1.0"><defs><clipPath id="30014a07db"><path d="M 126.5625 0 L 683.4375 0 C 753.335938 0 810 56.664062 810 126.5625 L 810 683.4375 C 810 753.335938 753.335938 810 683.4375 810 L 126.5625 810 C 56.664062 810 0 753.335938 0 683.4375 L 0 126.5625 C 0 56.664062 56.664062 0 126.5625 0 Z M 126.5625 0 " clip-rule="nonzero"/></clipPath><clipPath id="81b38945d3"><path d="M 172.480469 172.480469 L 637.480469 172.480469 L 637.480469 637.480469 L 172.480469 637.480469 Z M 172.480469 172.480469 " clip-rule="nonzero"/></clipPath></defs><g clip-path="url(#30014a07db)"><rect x="-81" width="972" fill="#59c9a5" y="-80.999999" height="971.999992" fill-opacity="1"/></g><g clip-path="url(#81b38945d3)"><path fill="#000000" d="M 637.515625 404.996094 C 637.515625 405.8125 637.515625 406.632812 637.515625 407.449219 C 637.152344 440.601562 606.996094 463.125 573.84375 463.125 L 484.925781 463.125 C 460.855469 463.125 441.328125 482.652344 441.328125 506.722656 C 441.328125 509.8125 441.691406 512.808594 442.234375 515.714844 C 444.144531 524.980469 448.140625 533.878906 452.046875 542.871094 C 457.585938 555.40625 463.035156 567.851562 463.035156 581.019531 C 463.035156 609.902344 443.417969 636.152344 414.535156 637.332031 C 411.355469 637.421875 408.175781 637.515625 404.90625 637.515625 C 276.566406 637.515625 172.480469 533.425781 172.480469 404.996094 C 172.480469 276.566406 276.566406 172.480469 404.996094 172.480469 C 533.425781 172.480469 637.515625 276.566406 637.515625 404.996094 Z M 288.738281 434.0625 C 288.738281 433.109375 288.691406 432.160156 288.597656 431.210938 C 288.503906 430.265625 288.363281 429.324219 288.179688 428.390625 C 287.992188 427.457031 287.761719 426.535156 287.484375 425.625 C 287.210938 424.714844 286.890625 423.816406 286.523438 422.9375 C 286.160156 422.058594 285.753906 421.199219 285.304688 420.359375 C 284.855469 419.519531 284.367188 418.707031 283.839844 417.914062 C 283.3125 417.121094 282.746094 416.359375 282.140625 415.621094 C 281.535156 414.886719 280.898438 414.183594 280.226562 413.507812 C 279.550781 412.835938 278.847656 412.199219 278.113281 411.59375 C 277.375 410.988281 276.613281 410.421875 275.820312 409.894531 C 275.027344 409.367188 274.214844 408.878906 273.375 408.429688 C 272.535156 407.980469 271.675781 407.574219 270.796875 407.210938 C 269.917969 406.84375 269.019531 406.523438 268.109375 406.25 C 267.199219 405.972656 266.277344 405.742188 265.34375 405.554688 C 264.410156 405.371094 263.46875 405.230469 262.523438 405.136719 C 261.574219 405.042969 260.625 404.996094 259.671875 404.996094 C 258.722656 404.996094 257.773438 405.042969 256.824219 405.136719 C 255.875 405.230469 254.9375 405.371094 254.003906 405.554688 C 253.070312 405.742188 252.148438 405.972656 251.234375 406.25 C 250.324219 406.523438 249.429688 406.84375 248.550781 407.210938 C 247.671875 407.574219 246.8125 407.980469 245.972656 408.429688 C 245.132812 408.878906 244.316406 409.367188 243.527344 409.894531 C 242.734375 410.421875 241.96875 410.988281 241.234375 411.59375 C 240.5 412.199219 239.792969 412.835938 239.121094 413.507812 C 238.449219 414.183594 237.808594 414.886719 237.207031 415.621094 C 236.601562 416.359375 236.035156 417.121094 235.507812 417.914062 C 234.976562 418.707031 234.488281 419.519531 234.039062 420.359375 C 233.589844 421.199219 233.183594 422.058594 232.820312 422.9375 C 232.457031 423.816406 232.136719 424.714844 231.859375 425.625 C 231.582031 426.535156 231.351562 427.457031 231.167969 428.390625 C 230.980469 429.324219 230.839844 430.265625 230.75 431.210938 C 230.65625 432.160156 230.609375 433.109375 230.609375 434.0625 C 230.609375 435.011719 230.65625 435.960938 230.75 436.910156 C 230.839844 437.859375 230.980469 438.796875 231.167969 439.730469 C 231.351562 440.664062 231.582031 441.585938 231.859375 442.5 C 232.136719 443.410156 232.457031 444.304688 232.820312 445.183594 C 233.183594 446.0625 233.589844 446.921875 234.039062 447.761719 C 234.488281 448.601562 234.976562 449.417969 235.507812 450.207031 C 236.035156 451 236.601562 451.765625 237.207031 452.5 C 237.808594 453.234375 238.449219 453.941406 239.121094 454.613281 C 239.792969 455.285156 240.5 455.925781 241.234375 456.527344 C 241.96875 457.132812 242.734375 457.699219 243.527344 458.226562 C 244.316406 458.757812 245.132812 459.246094 245.972656 459.695312 C 246.8125 460.144531 247.671875 460.550781 248.550781 460.914062 C 249.429688 461.277344 250.324219 461.597656 251.234375 461.875 C 252.148438 462.152344 253.070312 462.382812 254.003906 462.566406 C 254.9375 462.753906 255.875 462.894531 256.824219 462.984375 C 257.773438 463.078125 258.722656 463.125 259.671875 463.125 C 260.625 463.125 261.574219 463.078125 262.523438 462.984375 C 263.46875 462.894531 264.410156 462.753906 265.34375 462.566406 C 266.277344 462.382812 267.199219 462.152344 268.109375 461.875 C 269.019531 461.597656 269.917969 461.277344 270.796875 460.914062 C 271.675781 460.550781 272.535156 460.144531 273.375 459.695312 C 274.214844 459.246094 275.027344 458.757812 275.820312 458.226562 C 276.613281 457.699219 277.375 457.132812 278.113281 456.527344 C 278.847656 455.925781 279.550781 455.285156 280.226562 454.613281 C 280.898438 453.941406 281.535156 453.234375 282.140625 452.5 C 282.746094 451.765625 283.3125 451 283.839844 450.207031 C 284.367188 449.417969 284.855469 448.601562 285.304688 447.761719 C 285.753906 446.921875 286.160156 446.0625 286.523438 445.183594 C 286.890625 444.304688 287.210938 443.410156 287.484375 442.5 C 287.761719 441.585938 287.992188 440.664062 288.179688 439.730469 C 288.363281 438.796875 288.503906 437.859375 288.597656 436.910156 C 288.691406 435.960938 288.738281 435.011719 288.738281 434.0625 Z M 288.738281 346.867188 C 289.691406 346.867188 290.640625 346.820312 291.585938 346.726562 C 292.535156 346.632812 293.472656 346.496094 294.40625 346.308594 C 295.339844 346.121094 296.265625 345.890625 297.175781 345.617188 C 298.085938 345.339844 298.980469 345.019531 299.859375 344.65625 C 300.738281 344.289062 301.597656 343.882812 302.4375 343.433594 C 303.277344 342.988281 304.09375 342.496094 304.886719 341.96875 C 305.675781 341.441406 306.441406 340.875 307.175781 340.269531 C 307.910156 339.664062 308.617188 339.027344 309.289062 338.355469 C 309.960938 337.679688 310.601562 336.976562 311.207031 336.242188 C 311.808594 335.503906 312.375 334.742188 312.902344 333.949219 C 313.433594 333.160156 313.921875 332.34375 314.371094 331.503906 C 314.820312 330.664062 315.226562 329.804688 315.589844 328.925781 C 315.953125 328.046875 316.273438 327.152344 316.550781 326.238281 C 316.828125 325.328125 317.058594 324.40625 317.242188 323.472656 C 317.429688 322.539062 317.570312 321.597656 317.664062 320.652344 C 317.753906 319.703125 317.800781 318.753906 317.800781 317.800781 C 317.800781 316.851562 317.753906 315.902344 317.664062 314.953125 C 317.570312 314.007812 317.429688 313.066406 317.242188 312.132812 C 317.058594 311.199219 316.828125 310.277344 316.550781 309.367188 C 316.273438 308.453125 315.953125 307.558594 315.589844 306.679688 C 315.226562 305.800781 314.820312 304.941406 314.371094 304.101562 C 313.921875 303.261719 313.433594 302.445312 312.902344 301.65625 C 312.375 300.863281 311.808594 300.101562 311.207031 299.363281 C 310.601562 298.628906 309.960938 297.921875 309.289062 297.25 C 308.617188 296.578125 307.910156 295.9375 307.175781 295.335938 C 306.441406 294.730469 305.675781 294.164062 304.886719 293.636719 C 304.09375 293.105469 303.277344 292.617188 302.4375 292.167969 C 301.597656 291.722656 300.738281 291.316406 299.859375 290.949219 C 298.980469 290.585938 298.085938 290.265625 297.175781 289.988281 C 296.265625 289.714844 295.339844 289.480469 294.40625 289.296875 C 293.472656 289.109375 292.535156 288.972656 291.585938 288.878906 C 290.640625 288.785156 289.691406 288.738281 288.738281 288.738281 C 287.785156 288.738281 286.835938 288.785156 285.890625 288.878906 C 284.941406 288.972656 284 289.109375 283.066406 289.296875 C 282.132812 289.480469 281.210938 289.714844 280.300781 289.988281 C 279.390625 290.265625 278.496094 290.585938 277.613281 290.949219 C 276.734375 291.316406 275.875 291.722656 275.035156 292.167969 C 274.199219 292.617188 273.382812 293.105469 272.589844 293.636719 C 271.800781 294.164062 271.035156 294.730469 270.300781 295.335938 C 269.5625 295.9375 268.859375 296.578125 268.1875 297.25 C 267.511719 297.921875 266.875 298.628906 266.269531 299.363281 C 265.667969 300.101562 265.101562 300.863281 264.570312 301.65625 C 264.042969 302.445312 263.554688 303.261719 263.105469 304.101562 C 262.65625 304.941406 262.25 305.800781 261.886719 306.679688 C 261.519531 307.558594 261.199219 308.453125 260.925781 309.367188 C 260.648438 310.277344 260.417969 311.199219 260.230469 312.132812 C 260.046875 313.066406 259.90625 314.007812 259.8125 314.953125 C 259.71875 315.902344 259.671875 316.851562 259.671875 317.800781 C 259.671875 318.753906 259.71875 319.703125 259.8125 320.652344 C 259.90625 321.597656 260.046875 322.539062 260.230469 323.472656 C 260.417969 324.40625 260.648438 325.328125 260.925781 326.238281 C 261.199219 327.152344 261.519531 328.046875 261.886719 328.925781 C 262.25 329.804688 262.65625 330.664062 263.105469 331.503906 C 263.554688 332.34375 264.042969 333.160156 264.570312 333.949219 C 265.101562 334.742188 265.667969 335.503906 266.269531 336.242188 C 266.875 336.976562 267.511719 337.679688 268.1875 338.355469 C 268.859375 339.027344 269.5625 339.664062 270.300781 340.269531 C 271.035156 340.875 271.800781 341.441406 272.589844 341.96875 C 273.382812 342.496094 274.199219 342.988281 275.035156 343.433594 C 275.875 343.882812 276.734375 344.289062 277.613281 344.65625 C 278.496094 345.019531 279.390625 345.339844 280.300781 345.617188 C 281.210938 345.890625 282.132812 346.121094 283.066406 346.308594 C 284 346.496094 284.941406 346.632812 285.890625 346.726562 C 286.835938 346.820312 287.785156 346.867188 288.738281 346.867188 Z M 434.0625 259.671875 C 434.0625 258.722656 434.015625 257.773438 433.921875 256.824219 C 433.828125 255.878906 433.6875 254.9375 433.503906 254.003906 C 433.316406 253.070312 433.085938 252.148438 432.808594 251.234375 C 432.535156 250.324219 432.214844 249.429688 431.847656 248.550781 C 431.484375 247.671875 431.078125 246.8125 430.628906 245.972656 C 430.179688 245.132812 429.691406 244.316406 429.164062 243.527344 C 428.632812 242.734375 428.066406 241.96875 427.464844 241.234375 C 426.859375 240.5 426.222656 239.792969 425.546875 239.121094 C 424.875 238.449219 424.171875 237.808594 423.433594 237.207031 C 422.699219 236.601562 421.933594 236.035156 421.144531 235.507812 C 420.351562 234.976562 419.535156 234.488281 418.699219 234.039062 C 417.859375 233.589844 417 233.183594 416.117188 232.820312 C 415.238281 232.457031 414.34375 232.136719 413.433594 231.859375 C 412.523438 231.582031 411.601562 231.351562 410.667969 231.167969 C 409.734375 230.980469 408.792969 230.839844 407.84375 230.75 C 406.898438 230.65625 405.949219 230.609375 404.996094 230.609375 C 404.042969 230.609375 403.09375 230.65625 402.148438 230.75 C 401.199219 230.839844 400.261719 230.980469 399.328125 231.167969 C 398.394531 231.351562 397.46875 231.582031 396.558594 231.859375 C 395.648438 232.136719 394.753906 232.457031 393.875 232.820312 C 392.996094 233.183594 392.136719 233.589844 391.296875 234.039062 C 390.457031 234.488281 389.640625 234.976562 388.847656 235.507812 C 388.058594 236.035156 387.292969 236.601562 386.558594 237.207031 C 385.824219 237.808594 385.117188 238.449219 384.445312 239.121094 C 383.773438 239.792969 383.132812 240.5 382.527344 241.234375 C 381.925781 241.96875 381.359375 242.734375 380.832031 243.527344 C 380.300781 244.316406 379.8125 245.132812 379.363281 245.972656 C 378.914062 246.8125 378.507812 247.671875 378.144531 248.550781 C 377.78125 249.429688 377.460938 250.324219 377.183594 251.234375 C 376.90625 252.148438 376.675781 253.070312 376.492188 254.003906 C 376.304688 254.9375 376.164062 255.878906 376.070312 256.824219 C 375.980469 257.773438 375.933594 258.722656 375.933594 259.671875 C 375.933594 260.625 375.980469 261.574219 376.070312 262.523438 C 376.164062 263.46875 376.304688 264.410156 376.492188 265.34375 C 376.675781 266.277344 376.90625 267.199219 377.183594 268.109375 C 377.460938 269.019531 377.78125 269.917969 378.144531 270.796875 C 378.507812 271.675781 378.914062 272.535156 379.363281 273.375 C 379.8125 274.214844 380.300781 275.027344 380.832031 275.820312 C 381.359375 276.613281 381.925781 277.375 382.527344 278.113281 C 383.132812 278.847656 383.773438 279.550781 384.445312 280.226562 C 385.117188 280.898438 385.824219 281.535156 386.558594 282.140625 C 387.292969 282.746094 388.058594 283.3125 388.847656 283.839844 C 389.640625 284.367188 390.457031 284.855469 391.296875 285.304688 C 392.136719 285.753906 392.996094 286.160156 393.875 286.523438 C 394.753906 286.890625 395.648438 287.210938 396.558594 287.484375 C 397.46875 287.761719 398.394531 287.992188 399.328125 288.179688 C 400.261719 288.363281 401.199219 288.503906 402.148438 288.597656 C 403.09375 288.691406 404.042969 288.738281 404.996094 288.738281 C 405.949219 288.738281 406.898438 288.691406 407.84375 288.597656 C 408.792969 288.503906 409.734375 288.363281 410.667969 288.179688 C 411.601562 287.992188 412.523438 287.761719 413.433594 287.484375 C 414.34375 287.210938 415.238281 286.890625 416.117188 286.523438 C 417 286.160156 417.859375 285.753906 418.699219 285.304688 C 419.535156 284.855469 420.351562 284.367188 421.144531 283.839844 C 421.933594 283.3125 422.699219 282.746094 423.433594 282.140625 C 424.171875 281.535156 424.875 280.898438 425.546875 280.226562 C 426.222656 279.550781 426.859375 278.847656 427.464844 278.113281 C 428.066406 277.375 428.632812 276.613281 429.164062 275.820312 C 429.691406 275.027344 430.179688 274.214844 430.628906 273.375 C 431.078125 272.535156 431.484375 271.675781 431.847656 270.796875 C 432.214844 269.917969 432.535156 269.019531 432.808594 268.109375 C 433.085938 267.199219 433.316406 266.277344 433.503906 265.34375 C 433.6875 264.410156 433.828125 263.46875 433.921875 262.523438 C 434.015625 261.574219 434.0625 260.625 434.0625 259.671875 Z M 521.253906 346.867188 C 522.207031 346.867188 523.15625 346.820312 524.105469 346.726562 C 525.050781 346.632812 525.992188 346.496094 526.925781 346.308594 C 527.859375 346.121094 528.78125 345.890625 529.691406 345.617188 C 530.601562 345.339844 531.5 345.019531 532.378906 344.65625 C 533.257812 344.289062 534.117188 343.882812 534.957031 343.433594 C 535.796875 342.988281 536.609375 342.496094 537.402344 341.96875 C 538.195312 341.441406 538.957031 340.875 539.695312 340.269531 C 540.429688 339.664062 541.132812 339.027344 541.808594 338.355469 C 542.480469 337.679688 543.117188 336.976562 543.722656 336.242188 C 544.328125 335.503906 544.894531 334.742188 545.421875 333.949219 C 545.949219 333.160156 546.4375 332.34375 546.886719 331.503906 C 547.335938 330.664062 547.742188 329.804688 548.109375 328.925781 C 548.472656 328.046875 548.792969 327.152344 549.070312 326.238281 C 549.34375 325.328125 549.574219 324.40625 549.761719 323.472656 C 549.949219 322.539062 550.085938 321.597656 550.179688 320.652344 C 550.273438 319.703125 550.320312 318.753906 550.320312 317.800781 C 550.320312 316.851562 550.273438 315.902344 550.179688 314.953125 C 550.085938 314.007812 549.945312 313.066406 549.761719 312.132812 C 549.574219 311.199219 549.34375 310.277344 549.070312 309.367188 C 548.792969 308.453125 548.472656 307.558594 548.109375 306.679688 C 547.742188 305.800781 547.335938 304.941406 546.886719 304.101562 C 546.4375 303.261719 545.949219 302.445312 545.421875 301.65625 C 544.894531 300.863281 544.328125 300.101562 543.722656 299.363281 C 543.117188 298.628906 542.480469 297.921875 541.808594 297.25 C 541.132812 296.578125 540.429688 295.9375 539.695312 295.335938 C 538.957031 294.730469 538.195312 294.164062 537.402344 293.636719 C 536.609375 293.105469 535.796875 292.617188 534.957031 292.167969 C 534.117188 291.722656 533.257812 291.316406 532.378906 290.949219 C 531.5 290.585938 530.601562 290.265625 529.691406 289.988281 C 528.78125 289.714844 527.859375 289.480469 526.925781 289.296875 C 525.992188 289.109375 525.050781 288.972656 524.105469 288.878906 C 523.15625 288.785156 522.207031 288.738281 521.253906 288.738281 C 520.304688 288.738281 519.355469 288.785156 518.40625 288.878906 C 517.460938 288.972656 516.519531 289.109375 515.585938 289.296875 C 514.652344 289.480469 513.730469 289.714844 512.816406 289.988281 C 511.90625 290.265625 511.011719 290.585938 510.132812 290.949219 C 509.253906 291.316406 508.394531 291.722656 507.554688 292.167969 C 506.714844 292.617188 505.898438 293.105469 505.109375 293.636719 C 504.316406 294.164062 503.554688 294.730469 502.816406 295.335938 C 502.082031 295.9375 501.375 296.578125 500.703125 297.25 C 500.03125 297.921875 499.390625 298.628906 498.789062 299.363281 C 498.183594 300.101562 497.617188 300.863281 497.089844 301.65625 C 496.558594 302.445312 496.070312 303.261719 495.621094 304.101562 C 495.175781 304.941406 494.765625 305.800781 494.402344 306.679688 C 494.039062 307.558594 493.71875 308.453125 493.441406 309.367188 C 493.164062 310.277344 492.933594 311.199219 492.75 312.132812 C 492.5625 313.066406 492.425781 314.007812 492.332031 314.953125 C 492.238281 315.902344 492.191406 316.851562 492.191406 317.800781 C 492.191406 318.753906 492.238281 319.703125 492.332031 320.652344 C 492.425781 321.597656 492.5625 322.539062 492.75 323.472656 C 492.933594 324.40625 493.164062 325.328125 493.441406 326.238281 C 493.71875 327.152344 494.039062 328.046875 494.402344 328.925781 C 494.765625 329.804688 495.175781 330.664062 495.621094 331.503906 C 496.070312 332.34375 496.558594 333.160156 497.089844 333.949219 C 497.617188 334.742188 498.183594 335.503906 498.789062 336.242188 C 499.390625 336.976562 500.03125 337.679688 500.703125 338.355469 C 501.375 339.027344 502.082031 339.664062 502.816406 340.269531 C 503.554688 340.875 504.316406 341.441406 505.109375 341.96875 C 505.898438 342.496094 506.714844 342.988281 507.554688 343.433594 C 508.394531 343.882812 509.253906 344.289062 510.132812 344.65625 C 511.011719 345.019531 511.90625 345.339844 512.816406 345.617188 C 513.730469 345.890625 514.652344 346.121094 515.585938 346.308594 C 516.519531 346.496094 517.460938 346.632812 518.40625 346.726562 C 519.355469 346.820312 520.304688 346.867188 521.253906 346.867188 Z M 521.253906 346.867188 " fill-opacity="1" fill-rule="nonzero"/></g></svg>