<svg xmlns="http://www.w3.org/2000/svg" xmlns:xlink="http://www.w3.org/1999/xlink" width="1080" zoomAndPan="magnify" viewBox="0 0 810 163.5" height="218" preserveAspectRatio="xMidYMid meet" version="1.0"><defs><clipPath id="82d65f9ccc"><path d="M 2 9.328125 L 808 9.328125 L 808 153.636719 L 2 153.636719 Z M 2 9.328125 " clip-rule="nonzero"/></clipPath><clipPath id="08470bef0c"><path d="M 28.324219 39.953125 L 111.320312 39.953125 L 111.320312 122.949219 L 28.324219 122.949219 Z M 28.324219 39.953125 " clip-rule="nonzero"/></clipPath></defs><g clip-path="url(#82d65f9ccc)"><path fill="#e9eee8" d="M 74.652344 9.328125 L 735.339844 9.328125 C 736.523438 9.328125 737.703125 9.355469 738.882812 9.414062 C 740.0625 9.472656 741.238281 9.558594 742.414062 9.675781 C 743.589844 9.789062 744.761719 9.9375 745.929688 10.109375 C 747.101562 10.28125 748.261719 10.484375 749.421875 10.714844 C 750.578125 10.945312 751.730469 11.203125 752.878906 11.492188 C 754.023438 11.777344 755.160156 12.09375 756.292969 12.433594 C 757.421875 12.777344 758.542969 13.148438 759.65625 13.546875 C 760.769531 13.945312 761.871094 14.371094 762.960938 14.820312 C 764.050781 15.273438 765.132812 15.75 766.199219 16.257812 C 767.265625 16.761719 768.320312 17.292969 769.363281 17.847656 C 770.40625 18.40625 771.433594 18.988281 772.445312 19.59375 C 773.457031 20.203125 774.457031 20.835938 775.4375 21.492188 C 776.421875 22.148438 777.386719 22.828125 778.335938 23.53125 C 779.28125 24.234375 780.214844 24.960938 781.125 25.710938 C 782.039062 26.457031 782.933594 27.230469 783.808594 28.023438 C 784.683594 28.816406 785.539062 29.628906 786.375 30.464844 C 787.210938 31.300781 788.023438 32.15625 788.816406 33.03125 C 789.609375 33.90625 790.382812 34.800781 791.132812 35.714844 C 791.878906 36.625 792.605469 37.558594 793.308594 38.507812 C 794.015625 39.453125 794.695312 40.421875 795.351562 41.402344 C 796.007812 42.382812 796.636719 43.382812 797.246094 44.394531 C 797.851562 45.40625 798.433594 46.433594 798.992188 47.476562 C 799.546875 48.519531 800.078125 49.574219 800.585938 50.640625 C 801.089844 51.707031 801.566406 52.789062 802.019531 53.878906 C 802.472656 54.972656 802.898438 56.074219 803.292969 57.183594 C 803.691406 58.296875 804.0625 59.417969 804.40625 60.546875 C 804.75 61.679688 805.0625 62.816406 805.351562 63.960938 C 805.636719 65.109375 805.894531 66.257812 806.125 67.417969 C 806.355469 68.578125 806.558594 69.738281 806.730469 70.910156 C 806.90625 72.078125 807.050781 73.25 807.164062 74.425781 C 807.28125 75.597656 807.367188 76.777344 807.425781 77.957031 C 807.484375 79.136719 807.511719 80.316406 807.511719 81.496094 C 807.511719 82.679688 807.484375 83.859375 807.425781 85.039062 C 807.367188 86.21875 807.28125 87.394531 807.164062 88.570312 C 807.050781 89.746094 806.90625 90.917969 806.730469 92.085938 C 806.558594 93.253906 806.355469 94.417969 806.125 95.578125 C 805.894531 96.734375 805.636719 97.886719 805.351562 99.035156 C 805.0625 100.179688 804.75 101.316406 804.40625 102.449219 C 804.0625 103.578125 803.691406 104.699219 803.292969 105.8125 C 802.898438 106.921875 802.472656 108.023438 802.019531 109.117188 C 801.566406 110.207031 801.089844 111.285156 800.585938 112.355469 C 800.078125 113.421875 799.546875 114.476562 798.992188 115.519531 C 798.433594 116.558594 797.851562 117.585938 797.246094 118.601562 C 796.636719 119.613281 796.007812 120.613281 795.351562 121.59375 C 794.695312 122.574219 794.015625 123.539062 793.308594 124.488281 C 792.605469 125.4375 791.878906 126.367188 791.132812 127.28125 C 790.382812 128.195312 789.609375 129.089844 788.816406 129.964844 C 788.023438 130.839844 787.210938 131.695312 786.375 132.53125 C 785.539062 133.363281 784.683594 134.179688 783.808594 134.972656 C 782.933594 135.765625 782.039062 136.535156 781.125 137.285156 C 780.214844 138.035156 779.28125 138.761719 778.335938 139.464844 C 777.386719 140.167969 776.421875 140.847656 775.4375 141.503906 C 774.457031 142.160156 773.457031 142.792969 772.445312 143.398438 C 771.433594 144.007812 770.40625 144.589844 769.363281 145.144531 C 768.320312 145.703125 767.265625 146.234375 766.199219 146.738281 C 765.132812 147.242188 764.050781 147.722656 762.960938 148.175781 C 761.871094 148.625 760.769531 149.050781 759.65625 149.449219 C 758.542969 149.847656 757.421875 150.21875 756.292969 150.558594 C 755.160156 150.902344 754.023438 151.21875 752.878906 151.503906 C 751.730469 151.792969 750.578125 152.050781 749.421875 152.28125 C 748.261719 152.511719 747.097656 152.714844 745.929688 152.886719 C 744.761719 153.058594 743.589844 153.203125 742.414062 153.320312 C 741.238281 153.4375 740.0625 153.523438 738.882812 153.582031 C 737.703125 153.640625 736.523438 153.667969 735.339844 153.667969 L 74.652344 153.667969 C 73.46875 153.667969 72.289062 153.640625 71.109375 153.582031 C 69.929688 153.523438 68.753906 153.4375 67.578125 153.320312 C 66.402344 153.203125 65.230469 153.058594 64.0625 152.886719 C 62.894531 152.714844 61.730469 152.511719 60.570312 152.28125 C 59.414062 152.050781 58.261719 151.792969 57.113281 151.503906 C 55.96875 151.21875 54.832031 150.902344 53.699219 150.558594 C 52.570312 150.21875 51.449219 149.847656 50.335938 149.449219 C 49.226562 149.050781 48.125 148.625 47.03125 148.175781 C 45.941406 147.722656 44.863281 147.242188 43.792969 146.738281 C 42.726562 146.234375 41.671875 145.703125 40.628906 145.144531 C 39.589844 144.589844 38.5625 144.007812 37.546875 143.398438 C 36.535156 142.792969 35.535156 142.160156 34.554688 141.503906 C 33.574219 140.847656 32.609375 140.167969 31.660156 139.464844 C 30.710938 138.761719 29.777344 138.035156 28.867188 137.285156 C 27.953125 136.535156 27.058594 135.765625 26.183594 134.972656 C 25.308594 134.179688 24.453125 133.363281 23.617188 132.53125 C 22.78125 131.695312 21.96875 130.839844 21.175781 129.964844 C 20.382812 129.089844 19.609375 128.195312 18.863281 127.28125 C 18.113281 126.367188 17.386719 125.4375 16.683594 124.488281 C 15.980469 123.539062 15.300781 122.574219 14.644531 121.59375 C 13.988281 120.613281 13.355469 119.613281 12.746094 118.601562 C 12.140625 117.585938 11.558594 116.558594 11 115.519531 C 10.445312 114.476562 9.914062 113.421875 9.410156 112.355469 C 8.902344 111.285156 8.425781 110.207031 7.972656 109.117188 C 7.519531 108.023438 7.097656 106.921875 6.699219 105.8125 C 6.300781 104.699219 5.929688 103.578125 5.585938 102.449219 C 5.246094 101.316406 4.929688 100.179688 4.640625 99.035156 C 4.355469 97.886719 4.097656 96.734375 3.867188 95.578125 C 3.636719 94.417969 3.433594 93.253906 3.261719 92.085938 C 3.085938 90.917969 2.941406 89.746094 2.828125 88.570312 C 2.710938 87.394531 2.625 86.21875 2.566406 85.039062 C 2.507812 83.859375 2.480469 82.679688 2.480469 81.496094 C 2.480469 80.316406 2.507812 79.136719 2.566406 77.957031 C 2.625 76.777344 2.710938 75.597656 2.828125 74.425781 C 2.941406 73.25 3.085938 72.078125 3.261719 70.910156 C 3.433594 69.738281 3.636719 68.578125 3.867188 67.417969 C 4.097656 66.257812 4.355469 65.109375 4.640625 63.960938 C 4.929688 62.816406 5.246094 61.679688 5.585938 60.546875 C 5.929688 59.417969 6.300781 58.296875 6.699219 57.183594 C 7.097656 56.074219 7.519531 54.972656 7.972656 53.878906 C 8.425781 52.789062 8.902344 51.707031 9.410156 50.640625 C 9.914062 49.574219 10.445312 48.519531 11 47.476562 C 11.558594 46.433594 12.140625 45.40625 12.746094 44.394531 C 13.355469 43.382812 13.988281 42.382812 14.644531 41.402344 C 15.300781 40.421875 15.980469 39.453125 16.683594 38.507812 C 17.386719 37.558594 18.113281 36.625 18.863281 35.714844 C 19.609375 34.800781 20.382812 33.90625 21.175781 33.03125 C 21.96875 32.15625 22.78125 31.300781 23.617188 30.464844 C 24.453125 29.628906 25.308594 28.816406 26.183594 28.023438 C 27.058594 27.230469 27.953125 26.457031 28.867188 25.710938 C 29.777344 24.960938 30.710938 24.234375 31.660156 23.53125 C 32.609375 22.828125 33.574219 22.148438 34.554688 21.492188 C 35.535156 20.835938 36.535156 20.203125 37.546875 19.59375 C 38.5625 18.988281 39.589844 18.40625 40.628906 17.847656 C 41.671875 17.292969 42.726562 16.761719 43.792969 16.257812 C 44.863281 15.75 45.941406 15.273438 47.03125 14.820312 C 48.125 14.371094 49.226562 13.945312 50.335938 13.546875 C 51.449219 13.148438 52.570312 12.777344 53.699219 12.433594 C 54.832031 12.09375 55.96875 11.777344 57.113281 11.492188 C 58.261719 11.203125 59.414062 10.945312 60.570312 10.714844 C 61.730469 10.484375 62.894531 10.28125 64.0625 10.109375 C 65.230469 9.9375 66.402344 9.789062 67.578125 9.675781 C 68.753906 9.558594 69.929688 9.472656 71.109375 9.414062 C 72.289062 9.355469 73.46875 9.328125 74.652344 9.328125 Z M 74.652344 9.328125 " fill-opacity="1" fill-rule="nonzero"/></g><g clip-path="url(#08470bef0c)"><path fill="#4aba86" d="M 69.871094 39.953125 C 47.019531 39.953125 28.324219 58.648438 28.324219 81.496094 C 28.324219 104.347656 47.019531 123.042969 69.871094 123.042969 C 92.71875 123.042969 111.414062 104.347656 111.414062 81.496094 C 111.414062 58.648438 92.71875 39.953125 69.871094 39.953125 Z M 86.726562 99.800781 C 85.945312 99.800781 85.554688 99.410156 84.773438 99.019531 C 78.910156 95.5 71.488281 93.546875 63.671875 93.546875 C 59.371094 93.546875 54.6875 94.328125 50.777344 95.109375 C 49.996094 95.109375 49.214844 95.5 48.824219 95.5 C 47.261719 95.5 46.089844 94.328125 46.089844 92.765625 C 46.089844 91.207031 46.871094 90.035156 48.433594 90.035156 C 53.515625 88.863281 58.59375 88.082031 64.066406 88.082031 C 73.054688 88.082031 81.261719 90.425781 88.296875 94.332031 C 89.078125 95.113281 89.859375 95.503906 89.859375 97.066406 C 89.066406 99.019531 87.898438 99.800781 86.726562 99.800781 Z M 91.019531 88.863281 C 90.238281 88.863281 89.457031 88.472656 88.679688 88.082031 C 82.035156 83.78125 72.652344 81.4375 62.496094 81.4375 C 57.414062 81.4375 52.726562 82.21875 49.210938 83 C 48.429688 83.390625 48.039062 83.390625 47.257812 83.390625 C 45.304688 83.390625 44.128906 81.828125 44.128906 80.261719 C 44.128906 78.308594 44.910156 77.527344 46.863281 76.742188 C 51.554688 75.570312 56.242188 74.402344 62.886719 74.402344 C 73.828125 74.402344 83.988281 77.132812 92.585938 82.214844 C 93.757812 82.996094 94.539062 84.167969 94.539062 85.34375 C 94.148438 87.296875 92.976562 88.863281 91.019531 88.863281 Z M 96.101562 76.351562 C 95.320312 76.351562 94.929688 75.960938 93.757812 75.570312 C 85.945312 71.273438 74.609375 68.539062 63.667969 68.539062 C 58.195312 68.539062 52.335938 69.320312 47.253906 70.492188 C 46.472656 70.492188 46.082031 70.882812 44.910156 70.882812 C 42.566406 71.277344 41 69.320312 41 66.976562 C 41 64.632812 42.171875 63.457031 43.734375 63.066406 C 49.992188 61.503906 56.632812 60.722656 63.667969 60.722656 C 75.78125 60.722656 88.289062 63.457031 98.058594 68.539062 C 99.230469 69.320312 100.402344 70.492188 100.402344 72.449219 C 100.011719 74.792969 98.445312 76.351562 96.101562 76.351562 Z M 96.101562 76.351562 " fill-opacity="1" fill-rule="nonzero"/></g></svg>